<svg width="231" height="40" viewBox="0 0 231 40" fill="none" xmlns="http://www.w3.org/2000/svg">
  <path
    d="M2.11364 36V18.5455H4.125V24.9886H4.29545C4.44318 24.7614 4.64773 24.4716 4.90909 24.1193C5.17614 23.7614 5.55682 23.4432 6.05114 23.1648C6.55114 22.8807 7.22727 22.7386 8.07955 22.7386C9.18182 22.7386 10.1534 23.0142 10.9943 23.5653C11.8352 24.1165 12.4915 24.8977 12.9631 25.9091C13.4347 26.9205 13.6705 28.1136 13.6705 29.4886C13.6705 30.875 13.4347 32.0767 12.9631 33.0938C12.4915 34.1051 11.8381 34.8892 11.0028 35.446C10.1676 35.9972 9.20455 36.2727 8.11364 36.2727C7.27273 36.2727 6.59943 36.1335 6.09375 35.8551C5.58807 35.571 5.19886 35.25 4.92614 34.892C4.65341 34.5284 4.44318 34.2273 4.29545 33.9886H4.05682V36H2.11364ZM4.09091 29.4545C4.09091 30.4432 4.2358 31.3153 4.52557 32.071C4.81534 32.821 5.23864 33.4091 5.79545 33.8352C6.35227 34.2557 7.03409 34.4659 7.84091 34.4659C8.68182 34.4659 9.38352 34.2443 9.94602 33.8011C10.5142 33.3523 10.9403 32.75 11.2244 31.9943C11.5142 31.233 11.6591 30.3864 11.6591 29.4545C11.6591 28.5341 11.517 27.7045 11.233 26.9659C10.9545 26.2216 10.5313 25.6335 9.96307 25.2017C9.40057 24.7642 8.69318 24.5455 7.84091 24.5455C7.02273 24.5455 6.33523 24.7528 5.77841 25.1676C5.22159 25.5767 4.80114 26.1506 4.51705 26.8892C4.23295 27.6222 4.09091 28.4773 4.09091 29.4545ZM22.0653 36.2727C20.8835 36.2727 19.8466 35.9915 18.9545 35.429C18.0682 34.8665 17.375 34.0795 16.875 33.0682C16.3807 32.0568 16.1335 30.875 16.1335 29.5227C16.1335 28.1591 16.3807 26.9687 16.875 25.9517C17.375 24.9347 18.0682 24.1449 18.9545 23.5824C19.8466 23.0199 20.8835 22.7386 22.0653 22.7386C23.2472 22.7386 24.2813 23.0199 25.1676 23.5824C26.0597 24.1449 26.7528 24.9347 27.2472 25.9517C27.7472 26.9687 27.9972 28.1591 27.9972 29.5227C27.9972 30.875 27.7472 32.0568 27.2472 33.0682C26.7528 34.0795 26.0597 34.8665 25.1676 35.429C24.2813 35.9915 23.2472 36.2727 22.0653 36.2727ZM22.0653 34.4659C22.9631 34.4659 23.7017 34.2358 24.2812 33.7756C24.8608 33.3153 25.2898 32.7102 25.5682 31.9602C25.8466 31.2102 25.9858 30.3977 25.9858 29.5227C25.9858 28.6477 25.8466 27.8324 25.5682 27.0767C25.2898 26.321 24.8608 25.7102 24.2812 25.2443C23.7017 24.7784 22.9631 24.5455 22.0653 24.5455C21.1676 24.5455 20.429 24.7784 19.8494 25.2443C19.2699 25.7102 18.8409 26.321 18.5625 27.0767C18.2841 27.8324 18.1449 28.6477 18.1449 29.5227C18.1449 30.3977 18.2841 31.2102 18.5625 31.9602C18.8409 32.7102 19.2699 33.3153 19.8494 33.7756C20.429 34.2358 21.1676 34.4659 22.0653 34.4659ZM36.3857 36.2727C35.2038 36.2727 34.1669 35.9915 33.2749 35.429C32.3885 34.8665 31.6953 34.0795 31.1953 33.0682C30.701 32.0568 30.4538 30.875 30.4538 29.5227C30.4538 28.1591 30.701 26.9687 31.1953 25.9517C31.6953 24.9347 32.3885 24.1449 33.2749 23.5824C34.1669 23.0199 35.2038 22.7386 36.3857 22.7386C37.5675 22.7386 38.6016 23.0199 39.4879 23.5824C40.38 24.1449 41.0732 24.9347 41.5675 25.9517C42.0675 26.9687 42.3175 28.1591 42.3175 29.5227C42.3175 30.875 42.0675 32.0568 41.5675 33.0682C41.0732 34.0795 40.38 34.8665 39.4879 35.429C38.6016 35.9915 37.5675 36.2727 36.3857 36.2727ZM36.3857 34.4659C37.2834 34.4659 38.022 34.2358 38.6016 33.7756C39.1811 33.3153 39.6101 32.7102 39.8885 31.9602C40.1669 31.2102 40.3061 30.3977 40.3061 29.5227C40.3061 28.6477 40.1669 27.8324 39.8885 27.0767C39.6101 26.321 39.1811 25.7102 38.6016 25.2443C38.022 24.7784 37.2834 24.5455 36.3857 24.5455C35.4879 24.5455 34.7493 24.7784 34.1697 25.2443C33.5902 25.7102 33.1612 26.321 32.8828 27.0767C32.6044 27.8324 32.4652 28.6477 32.4652 29.5227C32.4652 30.3977 32.6044 31.2102 32.8828 31.9602C33.1612 32.7102 33.5902 33.3153 34.1697 33.7756C34.7493 34.2358 35.4879 34.4659 36.3857 34.4659ZM47.2628 31.2273L47.2287 28.7386H47.6378L53.3651 22.9091H55.8537L49.7514 29.0795H49.581L47.2628 31.2273ZM45.3878 36V18.5455H47.3991V36H45.3878ZM53.706 36L48.5923 29.5227L50.0241 28.125L56.2628 36H53.706ZM58.4425 36V22.9091H60.3857V24.9545H60.5561C60.8288 24.2557 61.2692 23.7131 61.8771 23.3267C62.4851 22.9347 63.2152 22.7386 64.0675 22.7386C64.9311 22.7386 65.6499 22.9347 66.2237 23.3267C66.8033 23.7131 67.255 24.2557 67.5788 24.9545H67.7152C68.0504 24.2784 68.5533 23.7415 69.2237 23.3438C69.8942 22.9403 70.6982 22.7386 71.6357 22.7386C72.8061 22.7386 73.7635 23.1051 74.5078 23.8381C75.2521 24.5653 75.6243 25.6989 75.6243 27.2386V36H73.6129V27.2386C73.6129 26.2727 73.3487 25.5824 72.8203 25.1676C72.2919 24.7528 71.6697 24.5455 70.9538 24.5455C70.0334 24.5455 69.3203 24.8239 68.8146 25.3807C68.3089 25.9318 68.0561 26.6307 68.0561 27.4773V36H66.0107V27.0341C66.0107 26.2898 65.7692 25.6903 65.2862 25.2358C64.8033 24.7756 64.1811 24.5455 63.4197 24.5455C62.897 24.5455 62.4084 24.6847 61.9538 24.9631C61.505 25.2415 61.1413 25.6278 60.8629 26.1222C60.5902 26.6108 60.4538 27.1761 60.4538 27.8182V36H58.4425ZM83.1541 36.3068C82.3246 36.3068 81.5717 36.1506 80.8956 35.8381C80.2195 35.5199 79.6825 35.0625 79.2848 34.4659C78.8871 33.8636 78.6882 33.1364 78.6882 32.2841C78.6882 31.5341 78.8359 30.9261 79.1314 30.4602C79.4268 29.9886 79.8217 29.6193 80.3161 29.3523C80.8104 29.0852 81.3558 28.8864 81.9524 28.7557C82.5547 28.6193 83.1598 28.5114 83.7678 28.4318C84.5632 28.3295 85.2081 28.2528 85.7024 28.2017C86.2024 28.1449 86.5661 28.0511 86.7933 27.9205C87.0263 27.7898 87.1428 27.5625 87.1428 27.2386V27.1705C87.1428 26.3295 86.9126 25.6761 86.4524 25.2102C85.9979 24.7443 85.3075 24.5114 84.3814 24.5114C83.4212 24.5114 82.6683 24.7216 82.1229 25.142C81.5774 25.5625 81.1939 26.0114 80.9723 26.4886L79.0632 25.8068C79.4041 25.0114 79.8587 24.392 80.4268 23.9489C81.0007 23.5 81.6257 23.1875 82.3018 23.0114C82.9837 22.8295 83.6541 22.7386 84.3132 22.7386C84.7337 22.7386 85.2166 22.7898 85.7621 22.892C86.3132 22.9886 86.8445 23.1903 87.3558 23.4972C87.8729 23.804 88.3018 24.267 88.6428 24.8864C88.9837 25.5057 89.1541 26.3352 89.1541 27.375V36H87.1428V34.2273H87.0405C86.9041 34.5114 86.6768 34.8153 86.3587 35.1392C86.0405 35.4631 85.6172 35.7386 85.0888 35.9659C84.5604 36.1932 83.9155 36.3068 83.1541 36.3068ZM83.4609 34.5C84.2564 34.5 84.9268 34.3438 85.4723 34.0312C86.0234 33.7188 86.4382 33.3153 86.7166 32.821C87.0007 32.3267 87.1428 31.8068 87.1428 31.2614V29.4205C87.0575 29.5227 86.87 29.6165 86.5803 29.7017C86.2962 29.7812 85.9666 29.8523 85.5916 29.9148C85.2223 29.9716 84.8615 30.0227 84.5092 30.0682C84.1626 30.108 83.8814 30.142 83.6655 30.1705C83.1428 30.2386 82.6541 30.3494 82.1996 30.5028C81.7507 30.6506 81.3871 30.875 81.1087 31.1761C80.8359 31.4716 80.6996 31.875 80.6996 32.3864C80.6996 33.0852 80.9581 33.6136 81.4751 33.9716C81.9979 34.3239 82.6598 34.5 83.4609 34.5ZM92.8253 36V22.9091H94.7685V24.8864H94.9048C95.1435 24.2386 95.5753 23.7131 96.2003 23.3097C96.8253 22.9062 97.5298 22.7045 98.3139 22.7045C98.4616 22.7045 98.6463 22.7074 98.8679 22.7131C99.0895 22.7187 99.2571 22.7273 99.3707 22.7386V24.7841C99.3026 24.767 99.1463 24.7415 98.902 24.7074C98.6634 24.6676 98.4105 24.6477 98.1435 24.6477C97.5071 24.6477 96.9389 24.7812 96.4389 25.0483C95.9446 25.3097 95.5526 25.6733 95.2628 26.1392C94.9787 26.5994 94.8366 27.125 94.8366 27.7159V36H92.8253ZM103.63 31.2273L103.596 28.7386H104.005L109.732 22.9091H112.221L106.119 29.0795H105.948L103.63 31.2273ZM101.755 36V18.5455H103.766V36H101.755ZM110.073 36L104.96 29.5227L106.391 28.125L112.63 36H110.073Z"
    fill="white" />
  <path
    d="M208.52 12.2258C211.317 12.2258 213.585 10.1406 213.585 7.56845C213.585 4.99628 211.317 2.91112 208.52 2.91112C205.722 2.91112 203.454 4.99628 203.454 7.56845C203.454 10.1406 205.722 12.2258 208.52 12.2258Z"
    fill="#FF4500" />
  <path
    d="M136.475 27.3631C138.941 27.3631 140.377 25.6676 140.27 23.9992C140.243 23.3679 140.158 22.7399 140.016 22.1218C138.504 16.0975 133.174 11.644 126.83 11.644C119.313 11.644 113.215 17.8992 113.215 25.6164C113.215 33.3336 119.311 39.5875 126.83 39.5875C131.541 39.5875 134.905 38.0106 137.353 35.5387C137.635 35.256 137.847 34.9213 137.977 34.557C138.106 34.1927 138.15 33.8071 138.104 33.4261C138.059 33.0452 137.925 32.6775 137.713 32.3478C137.5 32.0181 137.213 31.7339 136.872 31.5143C135.689 30.7588 134.192 31.0134 133.092 31.8673C132.042 32.6822 130.036 34.3502 126.83 34.3502C123.001 34.3502 119.807 31.3498 119.075 27.3639L136.475 27.3631ZM126.83 16.8848C130.277 16.8848 133.206 19.3152 134.294 22.7066H119.367C120.454 19.3139 123.383 16.8848 126.83 16.8848Z"
    fill="white" />
  <path
    d="M211.369 17.1744C211.369 16.4796 211.069 15.8133 210.535 15.322C210 14.8307 209.275 14.5546 208.52 14.5546C207.764 14.5546 207.039 14.8307 206.505 15.322C205.97 15.8133 205.67 16.4796 205.67 17.1744V36.3868C205.67 37.0816 205.97 37.748 206.505 38.2393C207.039 38.7306 207.764 39.0066 208.52 39.0066C209.275 39.0066 210 38.7306 210.535 38.2393C211.069 37.748 211.369 37.0816 211.369 36.3868V17.1744Z"
    fill="white" />
  <path
    d="M168.942 2.61977C168.942 1.92497 168.641 1.25862 168.107 0.767314C167.573 0.276011 166.848 0 166.092 0C165.336 0 164.612 0.276011 164.077 0.767314C163.543 1.25862 163.243 1.92497 163.243 2.61977V14.3193C162.289 13.4426 161.152 12.7534 159.9 12.2935C158.648 11.8335 157.308 11.6126 155.96 11.644C148.442 11.644 142.345 17.8992 142.345 25.6164C142.345 33.3336 148.441 39.5875 155.96 39.5875C157.318 39.6144 158.668 39.3882 159.929 38.9226C161.189 38.457 162.334 37.7617 163.294 36.8785C163.428 37.5187 163.816 38.0901 164.383 38.4812C164.951 38.8722 165.656 39.0548 166.362 38.9931C167.068 38.9315 167.723 38.6302 168.2 38.148C168.677 37.6658 168.942 37.0373 168.942 36.3855V2.61977ZM155.96 34.3493C151.588 34.3493 148.044 30.4391 148.044 25.6164C148.044 20.7937 151.588 16.8848 155.96 16.8848C160.332 16.8848 163.875 20.7946 163.875 25.6177C163.875 30.4408 160.332 34.3493 155.96 34.3493Z"
    fill="white" />
  <path
    d="M198.704 2.61977C198.704 1.92497 198.404 1.25862 197.869 0.767314C197.335 0.276011 196.61 0 195.854 0C195.099 0 194.374 0.276011 193.839 0.767314C193.305 1.25862 193.005 1.92497 193.005 2.61977V14.3193C192.052 13.4426 190.915 12.7533 189.663 12.2933C188.411 11.8334 187.07 11.6125 185.722 11.644C178.205 11.644 172.108 17.8992 172.108 25.6164C172.108 33.3336 178.203 39.5875 185.722 39.5875C187.081 39.6144 188.431 39.3882 189.691 38.9226C190.952 38.4571 192.097 37.7617 193.057 36.8785C193.19 37.5191 193.578 38.091 194.145 38.4825C194.713 38.8739 195.419 39.0567 196.125 38.995C196.831 38.9334 197.487 38.6318 197.964 38.1491C198.441 37.6665 198.705 37.0376 198.704 36.3855V2.61977ZM185.722 34.3493C181.351 34.3493 177.807 30.4391 177.807 25.6164C177.807 20.7937 181.351 16.8848 185.722 16.8848C190.094 16.8848 193.638 20.7946 193.638 25.6177C193.638 30.4408 190.094 34.3493 185.722 34.3493Z"
    fill="white" />
  <path
    d="M225.847 36.3868V16.8848H228.38C229.034 16.8925 229.667 16.6728 230.151 16.2697C230.636 15.8666 230.937 15.3099 230.994 14.7112C231.017 14.3931 230.969 14.0739 230.853 13.7736C230.736 13.4732 230.554 13.1981 230.317 12.9652C230.08 12.7323 229.793 12.5466 229.475 12.4197C229.157 12.2927 228.814 12.2272 228.467 12.2271H225.847V8.52991C225.857 7.85375 225.588 7.19927 225.095 6.69774C224.601 6.19621 223.92 5.88471 223.187 5.82571C222.798 5.80187 222.407 5.85179 222.04 5.97237C221.672 6.09296 221.336 6.28163 221.051 6.52671C220.766 6.77179 220.539 7.06804 220.384 7.39712C220.228 7.7262 220.148 8.08109 220.148 8.4398V12.224H217.789C217.135 12.2162 216.502 12.436 216.017 12.8392C215.532 13.2424 215.231 13.7992 215.174 14.398C215.151 14.7162 215.199 15.0353 215.316 15.3357C215.433 15.636 215.615 15.9111 215.852 16.1439C216.089 16.3768 216.375 16.5624 216.693 16.6894C217.012 16.8163 217.355 16.8818 217.702 16.8818H220.148V36.3868C220.148 37.0816 220.448 37.748 220.983 38.2393C221.517 38.7306 222.242 39.0066 222.998 39.0066C223.753 39.0066 224.478 38.7306 225.013 38.2393C225.547 37.748 225.847 37.0816 225.847 36.3868Z"
    fill="white" />
</svg>