<svg width="196" height="234" viewBox="0 0 196 234" fill="none" xmlns="http://www.w3.org/2000/svg">
<path d="M168.099 8.06167C181.886 9.66865 192 21.5829 192 35.4932V230L98 182.921L4 230V35.4932C4 21.5829 14.1019 9.66865 27.9011 8.06167C74.4773 2.64611 121.523 2.64611 168.099 8.06167Z" fill="#FF4500" stroke="black" stroke-width="8" stroke-linecap="round" stroke-linejoin="round"/>
<path d="M123.799 136.329C117.412 142.709 107.128 143.939 98.4919 143.939C89.8657 143.939 79.5718 142.709 73.1948 136.329M143.326 35.3258L110.987 27.7156ZM169.268 37.9424C169.268 41.3233 167.925 44.5657 165.534 46.9563C163.144 49.347 159.901 50.69 156.521 50.69C153.14 50.69 149.897 49.347 147.507 46.9563C145.116 44.5657 143.773 41.3233 143.773 37.9424C143.848 34.611 145.223 31.4411 147.606 29.1113C149.988 26.7816 153.188 25.4771 156.521 25.4771C159.853 25.4771 163.053 26.7816 165.435 29.1113C167.818 31.4411 169.194 34.611 169.268 37.9424ZM171.38 114.319C171.38 140.715 138.591 162.118 98.1468 162.118C57.6996 162.118 24.9137 140.719 24.9137 114.319C24.9137 87.9232 57.6996 66.5207 98.1468 66.5207C138.591 66.5207 171.38 87.92 171.38 114.319ZM25.8657 106.891C22.9892 105.629 20.5427 103.556 18.8253 100.925C17.1078 98.2948 16.1938 95.2212 16.1948 92.0797C16.1928 88.7618 17.2117 85.5236 19.1134 82.8046C21.015 80.0857 23.7071 78.0177 26.8244 76.8814C29.9417 75.7451 33.3331 75.5955 36.5384 76.4528C39.7436 77.3102 42.6075 79.1331 44.7411 81.674M151.987 82.0031C154.077 79.382 156.93 77.4753 160.151 76.5469C163.373 75.6186 166.803 75.7144 169.967 76.8211C173.132 77.9279 175.874 79.9908 177.814 82.7245C179.755 85.4581 180.798 88.7274 180.798 92.0797C180.798 95.3405 179.813 98.525 177.971 101.216C176.13 103.907 173.518 105.979 170.479 107.16" fill="white"/>
<path d="M98.1437 165.316C55.9999 165.316 21.7156 142.441 21.7156 114.323C21.7156 112.38 21.8786 110.457 22.1981 108.569C19.3863 106.832 17.0652 104.406 15.4553 101.52C13.8454 98.6341 13.0002 95.3844 13 92.0798C13.0059 86.9465 15.0475 82.025 18.677 78.3949C22.3066 74.7648 27.2277 72.7224 32.361 72.7156C37.131 72.7156 41.6773 74.46 45.1949 77.5782C58.4504 69.0702 76.2811 63.7156 95.952 63.345L108.866 23.9329L111.684 24.5974L111.751 24.6134L141.85 31.6997C143.078 28.8247 145.122 26.3732 147.73 24.6491C150.338 22.9249 153.394 22.0038 156.521 22C160.748 22.0051 164.8 23.6868 167.789 26.6762C170.778 29.6656 172.459 33.7185 172.463 37.9457C172.458 42.1723 170.777 46.2244 167.788 49.2131C164.799 52.2018 160.747 53.8831 156.521 53.8881C152.297 53.8839 148.247 52.2056 145.259 49.2208C142.271 46.2361 140.587 42.1884 140.578 37.9648L113.115 31.4984L102.658 63.4153C121.613 64.1533 138.731 69.5239 151.511 77.8466C155.081 74.5408 159.77 72.7088 164.636 72.7188C169.77 72.7247 174.691 74.7668 178.322 78.397C181.952 82.0272 183.994 86.9491 184 92.083C184.015 95.5173 183.111 98.8931 181.38 101.86C179.65 104.826 177.157 107.275 174.16 108.952C174.438 110.719 174.581 112.508 174.581 114.323C174.575 142.441 140.287 165.316 98.1437 165.316ZM28.7444 108.278C28.3196 110.265 28.1054 112.291 28.1054 114.323C28.1054 138.92 59.5239 158.926 98.1437 158.926C136.763 158.926 168.182 138.917 168.182 114.323C168.182 112.367 167.984 110.441 167.597 108.549C167.389 108.116 167.281 107.641 167.281 107.16C165.144 98.7667 159.313 91.1469 150.891 85.0063C150.355 84.8117 149.882 84.4762 149.521 84.0351C136.719 75.2332 118.428 69.7156 98.1437 69.7156C78.0638 69.7156 59.9297 75.1245 47.1469 83.7763C46.7982 84.1726 46.3586 84.4785 45.8658 84.6677C37.262 90.8114 31.2811 98.4823 29.0607 106.949C29.054 107.372 28.9627 107.789 28.7923 108.176C28.7763 108.211 28.7636 108.246 28.7444 108.278ZM156.85 81.6996C164.259 87.6261 169.696 94.6836 172.476 102.428C174.077 101.221 175.374 99.6571 176.264 97.8606C177.154 96.0641 177.613 94.0847 177.604 92.0798C177.6 88.6398 176.232 85.3417 173.8 82.9092C171.367 80.4768 168.069 79.1088 164.629 79.1054C161.823 79.1014 159.092 80.0122 156.85 81.6996ZM32.361 79.1054C28.9216 79.1096 25.6242 80.478 23.1925 82.9104C20.7607 85.3427 19.3932 88.6404 19.3898 92.0798C19.3898 95.9552 21.115 99.5558 23.9776 101.984C26.8498 94.3002 32.3418 87.3002 39.7795 81.4312C37.6021 79.9168 35.0133 79.1051 32.361 79.1054ZM156.517 28.3866C151.252 28.3866 146.965 32.6741 146.965 37.9425C146.965 43.2108 151.252 47.4952 156.517 47.4952C161.783 47.4952 166.07 43.2108 166.07 37.9425C166.07 32.6741 161.786 28.3866 156.517 28.3866ZM98.4919 147.131C85.6964 147.131 76.6804 144.335 70.9328 138.585C70.3338 137.985 69.9974 137.172 69.9977 136.325C69.998 135.477 70.3349 134.664 70.9344 134.065C71.5339 133.466 72.3468 133.13 73.1944 133.13C74.0419 133.131 74.8545 133.467 75.4536 134.067C79.9424 138.556 87.476 140.741 98.4919 140.741C109.505 140.741 117.045 138.556 121.54 134.067C121.836 133.771 122.189 133.535 122.576 133.375C122.964 133.215 123.379 133.132 123.798 133.132C124.217 133.133 124.633 133.215 125.02 133.376C125.407 133.537 125.759 133.772 126.056 134.069C126.352 134.365 126.587 134.717 126.748 135.105C126.908 135.492 126.99 135.908 126.99 136.327C126.99 136.746 126.907 137.161 126.747 137.549C126.586 137.936 126.351 138.288 126.054 138.585C120.3 144.335 111.287 147.131 98.4919 147.131Z" fill="black"/>
<path d="M124.4 93.0702C117.888 93.0702 112.422 98.5239 112.422 105.035C112.422 111.543 117.888 116.818 124.4 116.818C130.911 116.818 136.182 111.543 136.182 105.035C136.182 98.5239 130.908 93.0702 124.4 93.0702ZM72.7766 93.0702C66.2718 93.0702 60.8118 98.5302 60.8118 105.035C60.8118 111.54 66.2686 116.818 72.7766 116.818C79.2846 116.818 84.5593 111.54 84.5593 105.035C84.5593 98.5302 79.2814 93.0702 72.7766 93.0702Z" fill="#FF4500"/>
</svg>
